PathFileType	4	(X/Y/Z)	C:/Users/opensim2020/Desktop/walking_exp_matlab/subject02_walking05_straight_03.trc																																																																																																																												
DataRate	CameraRate	NumFrames	NumMarkers	Units	OrigDataRate	OrigDataStartFrame	OrigNumFrames																																																																																																																								
100	100	5	42	mm	100	2161	224																																																																																																																								
Frame#	Time	LFHD			RFHD			LBHD			RBHD			C7			T10			CLAV			STRN			RBAK			LSHO			LUPA			LELB			LFRM			LWRA			LWRB			LFIN			RSHO			RUPA			RELB			RFRM			RWRA			RWRB			RFIN			LASI			RASI			LPSI			RPSI			LTHI			LKNE			LTIB			LANK			LHEE			LTOE			RTHI			RKNE			RTIB			RANK			RHEE			RTOE			*39			*40			*41		
		X1	Y1	Z1	X2	Y2	Z2	X3	Y3	Z3	X4	Y4	Z4	X5	Y5	Z5	X6	Y6	Z6	X7	Y7	Z7	X8	Y8	Z8	X9	Y9	Z9	X10	Y10	Z10	X11	Y11	Z11	X12	Y12	Z12	X13	Y13	Z13	X14	Y14	Z14	X15	Y15	Z15	X16	Y16	Z16	X17	Y17	Z17	X18	Y18	Z18	X19	Y19	Z19	X20	Y20	Z20	X21	Y21	Z21	X22	Y22	Z22	X23	Y23	Z23	X24	Y24	Z24	X25	Y25	Z25	X26	Y26	Z26	X27	Y27	Z27	X28	Y28	Z28	X29	Y29	Z29	X30	Y30	Z30	X31	Y31	Z31	X32	Y32	Z32	X33	Y33	Z33	X34	Y34	Z34	X35	Y35	Z35	X36	Y36	Z36	X37	Y37	Z37	X38	Y38	Z38	X39	Y39	Z39	X40	Y40	Z40	X41	Y41	Z41	X42	Y42	Z42
																																																																																																																															
85	0.84	-319.86115	1729.99048	-1072.1759	-340.93585	1709.45654	-931.26147	-432.52136	1633.50427	-1101.57288	-464.5097	1609.50452	-963.78308	-488.5394	1502.67773	-1025.7749	-548.63428	1230.84851	-1013.92957	-349.87189	1431.59827	-1037.05884	-302.89258	1258.03723	-1033.55762	-550.69647	1330.80042	-962.5177	-414.12521	1478.93787	-1206.16162	-392.7963	1284.40381	-1299.61304	-352.5209	1148.07153	-1321.17371	-280.22159	1034.77563	-1322.4657	-178.08958	956.46887	-1272.27832	-212.47247	932.60693	-1311.07275	-161.00543	891.12585	-1307.06702	-409.80518	1463.27283	-839.06909	-452.58755	1275.60059	-757.63666	-449.06619	1130.03442	-737.54193	-419.57465	1012.76788	-715.92035	-365.36374	888.14484	-731.38641	-414.89487	882.77722	-702.90771	-375.67233	821.95618	-697.55304	-350.242	964.4436	-1170.54932	-314.43237	954.86682	-916.54346	-543.91235	1011.20319	-1059.38647	-533.67767	1008.58295	-946.2738	-474.12772	659.8811	-1201.05811	-543.07233	467.98239	-1162.25952	-643.7193	300.46988	-1152.5542	-688.59174	79.7653	-1112.04468	-726.27008	57.26218	-1058.75952	-537.86407	30.25494	-1133.23669	-321.94458	656.49792	-828.24017	-238.85278	468.06851	-868.78577	-198.47003	287.22055	-853.94727	-127.26369	104.46276	-879.42468	-131.26772	40.34222	-936.97736	35.07067	111.02987	-866.2605	-445.03271	1775.18652	-1001.31262	NaN	NaN	NaN	NaN	NaN	NaN
86	0.85	-308.97412	1728.69348	-1070.92029	-330.14926	1708.073	-930.0473	-421.84628	1632.46716	-1100.91504	-453.80536	1608.40979	-962.61444	-477.71921	1501.3075	-1024.6156	-537.66138	1229.4635	-1012.71161	-339.01736	1430.24963	-1035.97766	-291.98257	1256.71643	-1032.72034	-539.9502	1329.26526	-961.32477	-403.55908	1477.51477	-1204.87366	-382.60287	1283.05579	-1298.33899	-342.33545	1146.60498	-1319.90283	-269.68112	1033.43933	-1321.27307	-167.03847	955.62146	-1271.40442	-201.6049	931.63	-1309.66882	-149.95721	890.4425	-1305.95532	-399.05319	1461.86279	-837.92761	-443.07446	1274.03149	-756.83887	-439.00891	1128.36609	-736.58838	-410.61127	1011.05975	-714.94373	-356.89545	886.22363	-730.37238	-406.49606	881.23956	-701.6933	-367.64059	820.05322	-696.32111	-340.21973	962.78802	-1170.32385	-303.15002	953.35638	-916.54095	-533.18256	1009.93146	-1058.09558	-522.53546	1007.41095	-944.97565	-466.10437	659.00128	-1200.62927	-536.00958	467.48779	-1162.14197	-639.14929	301.68039	-1152.71204	-687.75903	81.65588	-1112.54028	-725.63367	59.60902	-1059.25024	-537.84814	30.20143	-1133.38416	-308.04495	655.97516	-827.69568	-225.74542	467.71823	-868.68884	-186.70164	286.31589	-854.01361	-117.79992	102.87499	-880.35175	-122.43835	38.96817	-938.10785	44.48059	107.68196	-867.12585	-434.27567	1774.07617	-1000.17871	NaN	NaN	NaN	NaN	NaN	NaN
87	0.86	-298.09576	1727.4375	-1069.52551	-319.37689	1706.97449	-928.66986	-410.9144	1631.19031	-1099.0542	-443.38947	1607.28064	-961.51276	-466.811	1500.00806	-1023.27393	-526.60608	1228.14294	-1011.362	-328.07986	1429	-1034.80176	-281.00839	1255.48865	-1031.78809	-528.84869	1327.80823	-960.19745	-392.90405	1476.34912	-1203.66394	-372.3819	1281.85291	-1296.79126	-332.34979	1145.21777	-1318.51038	-259.56961	1032.14001	-1319.82861	-156.50415	954.66461	-1270.30029	-191.23477	930.45642	-1308.26697	-139.56027	889.38684	-1304.7312	-388.58276	1460.34851	-836.75507	-432.15143	1272.87793	-755.73254	-429.18356	1127.19836	-735.60345	-401.40308	1009.53473	-713.84766	-348.46609	884.41956	-729.19531	-398.11005	879.70667	-700.55334	-359.73221	818.32013	-695.3266	-330.05511	961.1604	-1169.99463	-291.38962	951.9754	-916.2785	-522.33087	1008.7785	-1056.64343	-511.24774	1006.33142	-943.58929	-457.57895	658.1474	-1200.18958	-528.68756	467.36951	-1162.32312	-634.24225	303.08569	-1152.99512	-686.79279	83.85934	-1113.05103	-725.11774	62.77663	-1060.06335	-537.78033	30.13102	-1133.51526	-293.64606	655.9278	-826.69373	-212.27299	467.15665	-868.31433	-175.81783	285.03439	-854.1272	-109.94717	100.76902	-881.37524	-115.60506	36.92271	-939.04315	52.04158	103.35487	-868.13605	-423.54797	1772.97278	-998.98657	NaN	NaN	NaN	NaN	NaN	NaN
88	0.87	-287.16232	1726.28613	-1068.08386	-308.42322	1705.59595	-927.07886	-400.12518	1630.16943	-1097.68604	-433.09521	1606.14893	-960.6936	-455.87256	1498.77954	-1021.85144	-515.42609	1226.87048	-1010.01544	-317.07269	1427.88696	-1033.53809	-269.87573	1254.40942	-1030.71533	-517.25134	1326.47717	-958.83185	-382.16974	1475.17102	-1202.34631	-362.32968	1280.65857	-1294.84155	-322.5079	1143.98242	-1316.92761	-249.88434	1030.97974	-1318.15527	-146.45416	953.64825	-1269.04126	-181.40952	929.14783	-1306.82813	-129.72729	887.94348	-1303.49524	-377.53186	1459.08447	-835.28967	-422.01596	1271.7998	-754.66797	-419.44748	1125.87402	-734.53497	-392.23682	1008.3877	-712.74518	-339.84952	882.81885	-727.91901	-389.40268	878.41956	-699.39789	-351.62183	816.71332	-694.13129	-319.46439	959.64722	-1169.50159	-279.18115	950.79736	-915.85565	-511.0386	1007.48743	-1055.1626	-499.72095	1005.21033	-942.09821	-448.56302	657.38654	-1199.83557	-520.93109	467.2352	-1162.2843	-629.09009	304.76578	-1153.19189	-685.65491	86.45129	-1113.60193	-724.31384	66.17236	-1060.52161	-537.66968	30.04093	-1133.63818	-278.64163	656.17963	-825.56171	-199.50024	466.51041	-867.8175	-165.89227	283.46378	-854.19055	-103.52419	98.44369	-882.09802	-110.49813	34.45753	-940.05627	58.09512	98.47147	-869.42206	-412.46863	1771.91663	-997.40094	NaN	NaN	NaN	NaN	NaN	NaN
89	0.88	-276.18704	1725.18213	-1066.50513	-297.50876	1704.45251	-925.49951	-389.26825	1629.23779	-1096.21753	-421.43106	1605.19312	-958.50977	-444.79382	1497.59363	-1020.28491	-504.13153	1225.68384	-1008.52856	-305.91544	1426.8551	-1032.16406	-258.64139	1253.34644	-1029.55432	-506.75906	1325.27222	-957.4212	-371.33679	1474.24719	-1200.81982	-352.04074	1280.01196	-1293.47021	-312.82925	1142.88391	-1315.22876	-240.30191	1029.61401	-1316.76501	-136.75067	952.17584	-1268.16589	-172.00563	927.84778	-1305.54346	-120.39533	886.78137	-1302.63293	-366.36566	1457.83435	-833.86304	-411.35593	1270.68323	-753.56622	-409.35013	1124.56396	-733.31665	-382.41504	1007.08899	-711.43512	-330.9342	881.27496	-726.65143	-380.48828	877.21411	-698.104	-343.20895	815.24689	-692.75146	-308.57019	958.29816	-1168.89343	-266.70663	949.88562	-915.1004	-499.39758	1006.18762	-1053.45679	-487.95071	1004.13245	-940.57196	-439.14453	656.80432	-1199.40601	-512.76831	467.29919	-1162.05762	-623.60388	306.78464	-1153.34399	-684.32031	89.45891	-1114.1449	-723.34326	70.34251	-1061.19043	-537.56256	29.99208	-1133.84827	-263.54025	656.55139	-824.25677	-187.01155	465.4635	-867.21667	-156.77493	281.556	-854.32172	-98.60342	95.23078	-883.16235	-106.60662	31.3628	-941.13336	62.88586	93.03252	-871.06146	-401.52863	1770.96313	-995.86902	NaN	NaN	NaN	NaN	NaN	NaN
